<svg width="100" height="100" viewBox="0 0 100 100" fill="none" xmlns="http://www.w3.org/2000/svg">
<rect width="100" height="100" fill="black"/>
<path d="M20.69 49.06H31.49L30.98 51.61H20.18L20.69 49.06ZM19.07 58.39H31.34L30.83 61H15.56L19.76 40H34.58L34.07 42.61H22.22L19.07 58.39ZM35.6577 61L39.8577 40H42.2877L48.5877 55.9L47.2977 55.87L59.6277 40H62.2077L58.0077 61H55.1277L58.4577 44.44L59.2077 44.5L48.2577 58.45H46.8777L41.2077 44.44L41.8377 44.53L38.5377 61H35.6577ZM61.13 61L74.87 40H77.84L83.15 61H80.18L75.5 41.62H76.7L64.37 61H61.13ZM66.23 55.75L67.55 53.35H79.34L79.76 55.75H66.23Z" fill="white"/>
</svg>
